<svg 
  xmlns="http://www.w3.org/2000/svg" 
  viewBox="0 0 1024 1024"
  width="100%" height="100%"
>

  <!-- Battery outline -->
<svg xmlns="http://www.w3.org/2000/svg" 

width="100%" height="100%" viewBox="420 152 931 700">
  <g>
    <path d="M1180 278H516c-53 0-96 43-96 96v256c0 53 43 96 96 96h664c53 0 96-43 96-96V374c0-53-43-96-96-96zm40 352c0 22-18 40-40 40H516c-22 0-40-18-40-40V374c0-22 18-40 40-40h664c22 0 40 18 40 40zm67-231v206c32 0 64-56 64-103s-32-103-64-103z"
    fill="white"
    />
  </g>
</svg>


  <!-- Battery fill -->
   <!-- width = charge level (0 → 700 max) -->
   <!-- fill = charge color -->
  <rect 
    x="90" 
    y="350" 
    rx="30"
    height="325" 
    width="770"  
    fill="white"
    opacity="100%" /> 
</svg>
